<?xml version="1.0" standalone="no"?>
<!DOCTYPE svg PUBLIC "-//W3C//DTD SVG 20010904//EN"
 "http://www.w3.org/TR/2001/REC-SVG-20010904/DTD/svg10.dtd">
<svg version="1.0" xmlns="http://www.w3.org/2000/svg"
 width="512.000000pt" height="512.000000pt" viewBox="0 0 512.000000 512.000000"
 preserveAspectRatio="xMidYMid meet">
<metadata>
Created by potrace 1.14, written by Peter Selinger 2001-2017
</metadata>
<g transform="translate(0.000000,512.000000) scale(0.100000,-0.100000)"
fill="#000000" stroke="none">
<path d="M1165 5113 c-236 -49 -417 -209 -496 -438 l-24 -70 0 -2045 0 -2045
23 -65 c13 -36 32 -81 42 -100 10 -19 23 -44 29 -56 15 -33 120 -142 167 -175
68 -46 142 -80 218 -100 68 -18 140 -19 1461 -16 l1390 2 60 23 c212 79 343
212 422 427 17 48 18 128 21 1638 l2 1588 -719 720 -719 719 -929 -1 c-510 -1
-937 -3 -948 -6z m1876 -665 c0 -194 2 -364 5 -378 28 -157 147 -299 305 -362
51 -21 72 -22 432 -26 l377 -3 -2 -1557 -3 -1557 -26 -55 c-33 -70 -89 -126
-159 -159 l-55 -26 -1355 0 -1355 0 -57 27 c-69 32 -122 85 -157 158 l-26 55
0 1995 0 1995 26 55 c28 59 85 122 134 148 78 40 77 40 1013 41 l902 1 1 -352z"/>
<path d="M1680 2857 c-106 -71 -106 -203 -1 -274 l34 -23 847 0 847 0 34 23
c18 12 44 38 57 57 42 62 15 176 -52 221 -17 12 -170 14 -877 17 l-855 2 -34
-23z"/>
<path d="M1685 2224 c-44 -22 -77 -76 -83 -133 -5 -55 10 -91 58 -136 l31 -30
858 -3 857 -2 34 23 c19 12 45 38 58 57 42 62 15 176 -52 221 -17 12 -169 14
-876 16 -750 2 -859 0 -885 -13z"/>
<path d="M1679 1577 c-18 -12 -44 -38 -57 -57 -42 -62 -15 -176 52 -221 17
-11 98 -15 396 -17 l376 -3 34 23 c106 72 106 204 1 275 -34 23 -36 23 -401
23 -365 0 -367 0 -401 -23z"/>
</g>
</svg>
